<?xml version="1.0" standalone="no"?>
<!DOCTYPE svg PUBLIC "-//W3C//DTD SVG 20010904//EN"
 "http://www.w3.org/TR/2001/REC-SVG-20010904/DTD/svg10.dtd">
<svg version="1.0" xmlns="http://www.w3.org/2000/svg"
 width="96.000000pt" height="96.000000pt" viewBox="0 0 96.000000 96.000000"
 preserveAspectRatio="xMidYMid meet">

<g transform="translate(0.000000,96.000000) scale(0.100000,-0.100000)"
fill="#000000" stroke="none">
<path d="M370 879 c-52 -28 -140 -73 -195 -101 -169 -87 -178 -63 77 -198
l223 -118 135 71 c271 141 308 162 304 169 -6 10 -425 228 -438 228 -6 0 -54
-23 -106 -51z"/>
<path d="M120 586 c0 -21 -6 -36 -15 -40 -17 -6 -21 -52 -4 -58 7 -2 7 -17 0
-48 -17 -74 -15 -80 25 -80 l35 0 -2 63 c-1 34 2 71 5 83 5 14 2 27 -8 37 -9
8 -16 29 -16 46 0 17 -4 31 -10 31 -5 0 -10 -15 -10 -34z"/>
<path d="M210 483 c0 -90 2 -98 32 -121 15 -12 26 -9 81 18 109 53 208 51 324
-7 51 -25 53 -26 73 -8 17 16 20 31 20 112 0 51 -3 93 -6 93 -3 0 -63 -30
-131 -66 l-126 -65 -111 57 c-61 31 -115 61 -120 65 -28 26 -36 8 -36 -78z"/>
<path d="M340 364 c-59 -27 -123 -82 -146 -126 -8 -15 -14 -29 -14 -33 0 -3
38 -5 84 -5 l84 0 11 46 c7 26 21 64 31 85 21 40 25 59 13 59 -5 0 -33 -12
-63 -26z"/>
<path d="M545 373 c4 -10 20 -53 34 -95 l26 -77 88 -1 87 0 -17 28 c-44 72
-131 141 -197 156 -25 6 -28 5 -21 -11z"/>
<path d="M431 343 c-10 -21 -26 -62 -34 -90 l-16 -53 95 0 94 0 -6 28 c-3 15
-19 55 -34 90 -24 52 -33 62 -54 62 -19 0 -30 -9 -45 -37z"/>
<path d="M154 137 c-3 -13 -4 -41 -2 -63 l3 -39 87 0 c87 0 88 0 88 25 0 14 3
42 6 63 l7 37 -92 0 c-87 0 -91 -1 -97 -23z"/>
<path d="M372 98 l3 -63 103 -3 102 -3 0 66 0 65 -105 0 -106 0 3 -62z"/>
<path d="M616 103 c4 -32 9 -60 11 -63 2 -2 42 -5 89 -6 l85 -2 -3 61 -3 62
-93 3 -92 3 6 -58z"/>
</g>
</svg>
